# xmcd
#
# Track frame offsets: 
#        150
#        7716
#        22269
#
# Disc length: 486 seconds
#
# Revision: 1
# Processed by: cddbd v1.5.2PL0 Copyright (c) Steve Scherf et al.
# Submitted via: ExactAudioCopy v0.95b4
#
DISCID=1601e403
DTITLE=Pluxus and Fridge - Pluxus Vs. Fridge Vs. Pluxus
DYEAR=1999
DGENRE=Electronic
TTITLE0=Tårta Och Raketer
TTITLE1=All That
TTITLE2=Är Jag Tunnhårig?
EXTD=
EXTT0=
EXTT1=
EXTT2=
PLAYORDER=
